:FULLY-SPECIFIED
:FORCE-ALL-JOINTS-BE-3DOF
:DEGREES
951
root 1.23686 15.3307 32.7497 6.72485 -2.99725 4.95912
lfemur 5.37721 0.821136 3.05759
ltibia 3.27358 -0 0
lfoot -29.7627 -14.2735 -0.000642248
ltoes -31.0625 0 0
rfemur -31.0072 -14.2338 -8.1074
rtibia 48.311 -0 0
rfoot -19.4151 2.93542 -0.00482275
rtoes -43.0758 0 0
lowerback -2.4813 -0.409105 0.267573
upperback -1.52592 -0.55399 -6.91347
thorax -0.25485 -0.315014 -7.3694
lowerneck -6.79531 0.357706 3.89716
upperneck 1.53644 0.0331545 3.33724
head 1.63069 0.122924 0.387095
lclavicle -1.21038e-14 4.54664e-14 5.16313e-31
lhumerus -59.1387 -44.0862 112.757
lradius 55.5389 -0 0
lwrist 25.414 0 0
lhand 40.4636 24.5725 0.000208801
lfingers 7.12502 -0 0
lthumb 62.7741 35.035 -0.00603756
rclavicle -1.21038e-14 4.54664e-14 5.16313e-31
rhumerus 3.50586 -33.9618 -5.32577
rradius 29.6974 -0 0
rwrist -13.9526 0 0
rhand -38.5325 -49.8625 0.0271381
rfingers 7.12502 -0 0
rthumb -11.5524 -79.5139 0.0248074
952
root 1.23398 15.3265 32.7436 6.69267 -3.03673 4.93889
lfemur 5.45553 0.844996 3.10692
ltibia 3.19599 -0 0
lfoot -29.7708 -14.2129 -0.000803953
ltoes -31.1291 0 0
rfemur -31.0529 -14.2644 -8.06433
rtibia 48.3709 -0 0
rfoot -19.4907 2.98429 -0.00603708
rtoes -43.0479 0 0
lowerback -2.45945 -0.409266 0.278101
upperback -1.50675 -0.554035 -6.88967
thorax -0.247161 -0.314542 -7.3498
lowerneck -6.79255 0.376216 3.94401
upperneck 1.52533 0.0545243 3.33705
head 1.62688 0.133519 0.379845
lclavicle -1.18452e-14 4.39365e-14 6.46303e-31
lhumerus -59.1191 -44.1103 112.804
lradius 55.5271 -0 0
lwrist 25.4082 0 0
lhand 40.3885 24.5704 0.000261374
lfingers 7.12502 -0 0
lthumb 62.7112 35.1085 -0.00755779
rclavicle -1.18452e-14 4.39365e-14 6.46303e-31
rhumerus 3.50066 -33.75 -5.1982
rradius 29.6575 -0 0
rwrist -13.8898 0 0
rhand -38.365 -49.7385 0.0339719
rfingers 7.12502 -0 0
rthumb -11.3907 -79.3965 0.0310542
953
root 1.23081 15.3218 32.737 6.65731 -3.08015 4.91666
lfemur 5.54168 0.871154 3.1612
ltibia 3.11068 -0 0
lfoot -29.7797 -14.1462 -0.000971839
ltoes -31.2025 0 0
rfemur -31.1031 -14.298 -8.01693
rtibia 48.4367 -0 0
rfoot -19.5738 3.03804 -0.00729786
rtoes -43.0171 0 0
lowerback -2.43543 -0.409448 0.289676
upperback -1.48568 -0.554094 -6.86349
thorax -0.238706 -0.314027 -7.32824
lowerneck -6.78949 0.396566 3.99552
upperneck 1.51312 0.0780212 3.33684
head 1.62269 0.145168 0.371873
lclavicle -1.15608e-14 4.22542e-14 7.81261e-31
lhumerus -59.0976 -44.1367 112.856
lradius 55.5142 -0 0
lwrist 25.4019 0 0
lhand 40.306 24.5681 0.000315958
lfingers 7.12502 -0 0
lthumb 62.642 35.1894 -0.00913619
rclavicle -1.15608e-14 4.22542e-14 7.81261e-31
rhumerus 3.4956 -33.5171 -5.05832
rradius 29.6136 -0 0
rwrist -13.8208 0 0
rhand -38.1808 -49.6022 0.0410675
rfingers 7.12502 -0 0
rthumb -11.213 -79.2673 0.0375402
954
root 1.22738 15.3168 32.7298 6.61901 -3.12721 4.89262
lfemur 5.63502 0.899398 3.22005
ltibia 3.01826 -0 0
lfoot -29.7894 -14.0739 -0.00114199
ltoes -31.2819 0 0
rfemur -31.1576 -14.3344 -7.96554
rtibia 48.5079 -0 0
rfoot -19.6639 3.09626 -0.00857567
rtoes -42.9839 0 0
lowerback -2.40941 -0.409651 0.302215
upperback -1.46285 -0.554168 -6.83514
thorax -0.229547 -0.313473 -7.30489
lowerneck -6.78616 0.418608 4.05132
upperneck 1.49988 0.103475 3.3366
head 1.61815 0.157786 0.363236
lclavicle -1.12528e-14 4.04318e-14 9.18037e-31
lhumerus -59.0743 -44.1654 112.913
lradius 55.5002 -0 0
lwrist 25.395 0 0
lhand 40.2166 24.5655 0.000371278
lfingers 7.12502 -0 0
lthumb 62.5671 35.277 -0.0107359
rclavicle -1.12528e-14 4.04318e-14 9.18037e-31
rhumerus 3.4909 -33.2647 -4.90724
rradius 29.5661 -0 0
rwrist -13.7459 0 0
rhand -37.9812 -49.4545 0.0482594
rfingers 7.12502 -0 0
rthumb -11.0204 -79.1274 0.0441142
